<svg xmlns="http://www.w3.org/2000/svg" viewBox="0 0 180 180"><path style="stroke-width:1px;stroke:#52d1dc;fill:#52d1dc" transform="translate(11.88 1.199)" vector-effect="non-scaling-stroke" d="M48 177.601H11.04a19.961 19.961 0 0 1-2.993-.209q-3.509-.533-5.407-2.431-1.984-1.984-2.477-5.732A20.509 20.509 0 0 1 0 166.561V11.041a19.961 19.961 0 0 1 .209-2.993Q.743 4.539 2.64 2.641 4.625.657 8.372.164A20.509 20.509 0 0 1 11.04.001h79.92q24.004 0 35.293 8.392a25.263 25.263 0 0 1 3.827 3.488 41.107 41.107 0 0 1 9.725 20.611 57.33 57.33 0 0 1 .835 9.989v11.04a61.688 61.688 0 0 1-.413 7.334q-.532 4.434-1.747 8.146-2.16 6.6-7.2 10.68 11.28 3.12 18.12 12.48a34.609 34.609 0 0 1 5.878 13.575 48.908 48.908 0 0 1 .962 9.945v50.88a19.961 19.961 0 0 1-.209 2.993q-.533 3.51-2.431 5.407-1.984 1.985-5.732 2.477a20.509 20.509 0 0 1-2.668.163H108a19.961 19.961 0 0 1-2.993-.209q-3.509-.533-5.407-2.431-1.984-1.984-2.477-5.732a20.509 20.509 0 0 1-.163-2.668v-36.72a16.441 16.441 0 0 0-.137-2.198q-.149-1.1-.459-1.998a6.687 6.687 0 0 0-.844-1.684 4.293 4.293 0 0 0-1.958-1.497q-1.342-.543-3.322-.543h-31.2v44.64a19.961 19.961 0 0 1-.209 2.993q-.533 3.51-2.431 5.407-1.984 1.985-5.732 2.477a20.509 20.509 0 0 1-2.668.163Zm-36.96-2.4H48a16.101 16.101 0 0 0 2.366-.161q2.768-.413 4.234-1.879 1.487-1.487 1.89-4.313a16.241 16.241 0 0 0 .15-2.287v-47.04h33.6a15.868 15.868 0 0 1 2.466.178q1.29.204 2.303.64a5.925 5.925 0 0 1 2.311 1.702 7.796 7.796 0 0 1 1.273 2.362q.743 2.131.767 5.237a26.927 26.927 0 0 1 0 .201v36.72a16.101 16.101 0 0 0 .162 2.366q.412 2.768 1.878 4.234 1.487 1.487 4.314 1.89a16.241 16.241 0 0 0 2.286.15h37.2a16.101 16.101 0 0 0 2.366-.161q2.768-.413 4.234-1.879 1.487-1.487 1.89-4.313a16.241 16.241 0 0 0 .15-2.287v-50.88a46.173 46.173 0 0 0-1.084-10.295q-1.868-8.174-6.956-13.945a31.243 31.243 0 0 0-19.399-10.35 40.422 40.422 0 0 0-1.601-.21q7.44-3.12 10.44-10.2a35.416 35.416 0 0 0 2.154-7.296q.846-4.509.846-9.864v-11.04a50.579 50.579 0 0 0-1.556-12.868 37.516 37.516 0 0 0-8.644-16.052Q118.712 3.355 95.432 2.483a119.506 119.506 0 0 0-4.472-.082H11.04a16.101 16.101 0 0 0-2.365.162q-2.768.412-4.235 1.878-1.487 1.487-1.89 4.314a16.241 16.241 0 0 0-.15 2.286v155.52a16.101 16.101 0 0 0 .162 2.366q.412 2.768 1.878 4.234 1.487 1.487 4.314 1.89a16.241 16.241 0 0 0 2.286.15Zm19.68-77.28v55.68h-2.4v-129.6h54.72a39.382 39.382 0 0 1 7.814.724q4.583.929 8.066 3.049a19.89 19.89 0 0 1 4.76 4.027 27.466 27.466 0 0 1 6.393 14.562 37.008 37.008 0 0 1 .327 4.998v16.56a69.541 69.541 0 0 1-.372 7.424q-.393 3.658-1.204 6.743a32.196 32.196 0 0 1-1.304 3.953 15.659 15.659 0 0 1-7.729 8.21A23.462 23.462 0 0 1 96 95.761h2.64q9.292 0 15.587 2.659a21.581 21.581 0 0 1 6.253 3.941 21.274 21.274 0 0 1 6.188 10.547q.886 3.372.996 7.376a41.859 41.859 0 0 1 .016 1.157v32.16h-2.4v-32.16a33.918 33.918 0 0 0-.633-6.776q-1.392-6.821-5.847-10.864a19.782 19.782 0 0 0-6.674-3.888q-5.524-1.992-13.486-1.992H30.72Zm52.32-71.52H30.72v69.36h52.32q13.093 0 18.568-5.574a12.76 12.76 0 0 0 1.352-1.626 24.618 24.618 0 0 0 3.31-6.991Q108 75.896 108 68.161v-16.8a32.558 32.558 0 0 0-.934-8.002 23.696 23.696 0 0 0-5.186-9.998q-5.34-6.073-15.705-6.847a42.118 42.118 0 0 0-3.135-.113Zm-26.4 49.92v-30.72h18q6.103 0 8.303 3.099a5.822 5.822 0 0 1 .097.141 12.476 12.476 0 0 1 1.804 4.398 17.663 17.663 0 0 1 .356 3.642v8.16a17.663 17.663 0 0 1-.356 3.643 12.476 12.476 0 0 1-1.804 4.397 6.358 6.358 0 0 1-2.858 2.299q-1.153.498-2.638.733a18.675 18.675 0 0 1-2.904.208h-18Zm18-28.32h-15.6v25.92h15.6a15.607 15.607 0 0 0 2.237-.148q2.617-.38 3.881-1.74a4.081 4.081 0 0 0 .482-.632 9.893 9.893 0 0 0 1.206-3q.288-1.243.342-2.684a18.057 18.057 0 0 0 .012-.676v-8.16q0-3.24-1.11-5.54a8.944 8.944 0 0 0-.45-.82 4.534 4.534 0 0 0-2.031-1.722q-1.594-.734-4.119-.793a19.231 19.231 0 0 0-.45-.005Z" /></svg>